<svg xmlns="http://www.w3.org/2000/svg" viewBox="0 0 780.36 129.16"><defs><style>.cls-1{isolation:isolate;}.cls-2{mix-blend-mode:multiply;}.cls-3{fill:#5d576b;stroke:#5d576b;stroke-miterlimit:10;stroke-width:5.72px;}.cls-4{fill:#fff;}</style></defs><title>logo</title><g class="cls-1"><g id="Layer_1" data-name="Layer 1"><g class="cls-2"><path class="cls-3" d="M87.15,149.64c-13.71,0-26.75,37.56-26.75,55.88,0,7.51,5.66,12.91,9.75,12.91,4.48,0,9.49-6.46,15.68-14.23.92-1.06,1.58-1.85,2.9-1.85,2,0,9,5.28,9,7.12a7.45,7.45,0,0,1-1.45,3.43c-2.9,4.61-6.19,10.54-10.28,14.63-2.37,2.37-9.09,3-14.1,3-12.12,0-31.5-13.18-31.5-25.83,0-23.07,21.09-67.75,40.73-67.75,10.8,0,26.09,9.62,26.09,16.35,0,3.82-5.14,13.18-8.3,18.58-.66,1.18-1.45,2.11-2.5,2.11-2.25,0-10.81-4.75-10.81-7.25a11,11,0,0,1,1.18-3.56c1.85-4.61,3.69-7.91,3.69-11.47C90.44,151.22,89.26,149.64,87.15,149.64Z" transform="translate(-37.5 -104.26)"/><path class="cls-3" d="M140,184.17c0-1.19-1.18-2.64-2.1-2.64-2,0-7.78,3.82-9.49,9.36-3.43,11.2-9,32.55-9.49,36.64-.27,2.1-2.9,3-4.75,3-4.48,0-12.78-4.09-12.78-7.65,0-4.74,15.81-64.84,19.64-76.57.52-2,2.63-2.77,4.08-2.77,4.09,0,13.31,6.72,13.31,9a15.71,15.71,0,0,1-.66,3.29c-3.16,11.07-5.14,17.92-5.14,17.92s8.44-5.93,15.16-5.93c5.14,0,12.39,6.2,12.39,11.07,0,6.2-7.91,31.5-7.91,38.49a2.4,2.4,0,0,0,1.85,2c3.95,0,11.07-8,17.53-19.91,0,0,1.18-2.37,2.89-2.37s4.49,2.11,4.49,3.69-1.72,4.61-1.72,4.61c-7.25,13.18-14.89,25.18-24.51,25.18-7.78,0-19.64-5.8-19.64-11.47C133.15,210.66,140,189.17,140,184.17Z" transform="translate(-37.5 -104.26)"/><path class="cls-3" d="M222,199.45s1.18-2.37,2.89-2.37,4.49,2.11,4.49,3.69-1.72,4.61-1.72,4.61c-7.25,13.18-15,25.18-24.51,25.18-6.85,0-18.85-5.93-18.85-11.07,0-9.76,6.72-27.68,6.72-34.27,0-.92-3-1.58-3-1.58s-3.82,9-10.15,20.82c0,0-1.45,3.3-3.69,3.3-1.31,0-4.35-1.85-4.35-3.69,0-1.58,1.72-4.35,1.72-4.35,4.48-8.31,9.22-19.9,9.22-19.9s-6.45-4.35-6.45-8.83,5.14-14.76,10.14-14.76c3.83,0,11.87,5,11.87,8,0,2.77-1.72,5.14-1.72,8.44,0,2.11,16.74,4.48,16.74,10,0,4.35-7.38,27.28-7.38,34.79,0,1.45.66,1.71,1,1.71C209.73,219.22,215.53,211.32,222,199.45Z" transform="translate(-37.5 -104.26)"/><path class="cls-3" d="M266,221.6c-1.58,0-3.43,0-5.27-.14-4.35,5.8-9.76,9.1-15.29,9.1-9.23,0-25.7-8.7-25.7-18.19,0-18.32,12.52-43.76,28.47-43.76,11.59,0,25.56,9.63,25.56,17.8,0,7-2.24,16.08-6.45,24.77a9.31,9.31,0,0,0,3.42.4c7.91,0,14.11-12.13,14.11-12.13s1.18-2.37,2.76-2.37c1.85,0,4.75,2.11,4.75,3.69s-1.85,4.61-1.85,4.61S281.43,221.6,266,221.6Zm-23.2-2.24c.93,0,1.72-.53,2.77-1.59a3.12,3.12,0,0,1-1.45-2.76c0-2.64,5-9.23,9-9.76,3.3-7.51,5.41-15.29,5.41-21.61,0-.92-1.45-3-4.09-3-4.48,0-14.89,20.16-14.89,34.92A3.74,3.74,0,0,0,242.81,219.36Z" transform="translate(-37.5 -104.26)"/><path class="cls-3" d="M362.22,219.22c4,0,11.07-7.9,17.53-19.77,0,0,1.19-2.37,2.9-2.37s4.48,2.11,4.48,3.69-1.71,4.61-1.71,4.61c-7.38,13.18-15,25.18-24.51,25.18-5.94,0-19-5.54-19-11.47,0-6.46,7.38-29.52,7.38-34.53a3,3,0,0,0-2.77-2.5c-4,0-8.44,3.29-9.62,6.72-2.77,8-8.7,35.06-9.36,38.75-.39,1.84-2.24,3-4.88,3-3.16,0-12.38-4.09-12.38-7.65s8.56-36.11,8.56-39a2.46,2.46,0,0,0-2.37-1.84c-2.9,0-7.91,1.31-9.88,6.32-3.43,8.7-9.49,35.32-10.42,39.15-.52,1.71-2.24,3-4.87,3-3.17,0-12.26-4-12.26-7.51s10-42.71,12.78-51.67c.66-1.84,2.24-2.77,5.14-2.77,3.3,0,9,6.46,9,6.46s11.07-6.46,18.18-6.46c6.33,0,12.13,7.38,12.13,7.38s12.12-7.38,19.5-7.38c5.54,0,13.58,5.41,13.58,10.28,0,6.2-8.17,31.9-8.17,38.88C361.17,218.43,361.69,219.22,362.22,219.22Z" transform="translate(-37.5 -104.26)"/><path class="cls-3" d="M405.59,168.61c6.72,0,19.77,6.59,19.77,12.26,0,6.59-8.57,28.34-17.4,28.34A56.69,56.69,0,0,1,397.42,208a13.32,13.32,0,0,0-.79,5.14c0,2.77,5.66,5.67,8.7,5.67,7.11,0,17.52-2.51,26.09-19.38,0,0,1.06-2.37,2.77-2.37s4.48,2.11,4.48,3.69-1.58,4.61-1.58,4.61c-9,17-20.43,25.18-31.1,25.18-11.6,0-28.87-8.57-28.87-18.85C377.12,196.82,391.36,168.61,405.59,168.61Zm6.72,14c0-.65-1.18-1.58-2.24-1.58-4.08,0-11.07,13.05-12.26,18.59C406.78,198.27,412.31,187.33,412.31,182.58Z" transform="translate(-37.5 -104.26)"/><path class="cls-3" d="M485.86,199.45s1.18-2.37,2.9-2.37,4.48,2.11,4.48,3.69-1.72,4.61-1.72,4.61c-7.24,13.18-20,25.18-39.8,25.18-13.18,0-28.33-14.11-28.33-22.28,0-6.72,11.73-12.52,11.73-12.52s12.12-18.45,16.6-25.83a7.25,7.25,0,0,1,5.27-3c2.64,0,11.08,6.06,11.08,8.43,0,12.79,4.87,23.33,4.87,33.22a16.39,16.39,0,0,1-2.63,8.7C474.26,214.48,479.14,211.32,485.86,199.45Zm-42.7,8.31c0,6.59,3.55,11.2,5.14,11.2,2.37,0,5.4-2.37,5.4-7.12,0-9.49-1.71-14.23-1.71-22.53C452,189.31,443.16,201.17,443.16,207.76Z" transform="translate(-37.5 -104.26)"/><path class="cls-3" d="M512.48,168.88h9.76c.79,0,1.58.39,1.58,1.18,0,2.38-2.9,9.1-5,9.1h-9.09c-4.35,14.89-9,31.89-9,34.92a5.15,5.15,0,0,0,4.75,5.14c4.35,0,11.07-7.9,17.53-19.77,0,0,1.18-2.37,2.9-2.37s4.48,2.11,4.48,3.69-1.72,4.61-1.72,4.61c-7.24,13.18-15,25.18-24.64,25.18-9,0-22.54-6.86-22.54-13.45,0-3.55,4.35-20.82,8.83-38h-4.48a1.44,1.44,0,0,1-1.45-1.32c0-1.58,3-9,5.41-9h3.29c2.5-9.23,4.35-15.82,5.27-18.72a3.5,3.5,0,0,1,3.43-2.9c4.61,0,14.1,6.46,14.1,8.83a15.23,15.23,0,0,1-.53,3.17Z" transform="translate(-37.5 -104.26)"/><path class="cls-3" d="M555.85,184.17c0-1.19-1.19-2.64-2.11-2.64-2,0-7.78,3.82-9.49,9.36-3.43,11.2-9,32.55-9.49,36.64-.26,2.1-2.9,3-4.74,3-4.48,0-12.79-4.09-12.79-7.65,0-4.74,15.82-64.84,19.64-76.57a4.16,4.16,0,0,1,4.08-2.77c4.09,0,13.32,6.72,13.32,9a16.38,16.38,0,0,1-.66,3.29c-3.17,11.07-5.14,17.92-5.14,17.92s8.43-5.93,15.15-5.93c5.14,0,12.39,6.2,12.39,11.07,0,6.2-7.91,31.5-7.91,38.49a2.4,2.4,0,0,0,1.85,2c3.95,0,11.07-8,17.53-19.91,0,0,1.18-2.37,2.9-2.37s4.48,2.11,4.48,3.69-1.72,4.61-1.72,4.61c-7.24,13.18-14.89,25.18-24.51,25.18-7.77,0-19.64-5.8-19.64-11.47C549,210.66,555.85,189.17,555.85,184.17Z" transform="translate(-37.5 -104.26)"/><path class="cls-3" d="M613.31,168.61c6.73,0,19.77,6.59,19.77,12.26,0,6.59-8.56,28.34-17.39,28.34A56.87,56.87,0,0,1,605.14,208a13.32,13.32,0,0,0-.79,5.14c0,2.77,5.67,5.67,8.7,5.67,7.12,0,17.53-2.51,26.1-19.38,0,0,1.05-2.37,2.76-2.37s4.48,2.11,4.48,3.69-1.58,4.61-1.58,4.61c-9,17-20.42,25.18-31.1,25.18-11.6,0-28.86-8.57-28.86-18.85C584.85,196.82,599.08,168.61,613.31,168.61Zm6.73,14c0-.65-1.19-1.58-2.24-1.58-4.09,0-11.08,13.05-12.26,18.59C614.5,198.27,620,187.33,620,182.58Z" transform="translate(-37.5 -104.26)"/><path class="cls-3" d="M693.58,199.45s1.19-2.37,2.9-2.37,4.48,2.11,4.48,3.69-1.71,4.61-1.71,4.61c-7.25,13.18-20,25.18-39.8,25.18-13.18,0-28.34-14.11-28.34-22.28,0-6.72,11.73-12.52,11.73-12.52s12.13-18.45,16.61-25.83a7.25,7.25,0,0,1,5.27-3c2.64,0,11.07,6.06,11.07,8.43,0,12.79,4.88,23.33,4.88,33.22a16.35,16.35,0,0,1-2.64,8.7C682,214.48,686.86,211.32,693.58,199.45Zm-42.7,8.31c0,6.59,3.56,11.2,5.14,11.2,2.38,0,5.41-2.37,5.41-7.12,0-9.49-1.72-14.23-1.72-22.53C659.71,189.31,650.88,201.17,650.88,207.76Z" transform="translate(-37.5 -104.26)"/><path class="cls-3" d="M700.84,171.38c.52-1.84,2.37-2.77,5.27-2.77,2.63,0,13.18,6.2,13.18,8.7,0,3-10.55,31.76-10.55,41,0,.53.93,1.19,1.32,1.19,3.82,0,10.68-8.17,17.4-20,0,0,1-2.37,2.77-2.37s4.48,2.11,4.48,3.69-1.85,4.61-1.85,4.61c-7.11,13.18-15,25.18-24.51,25.18-7.38,0-19.11-5.54-19.11-11.47C689.24,212.9,698.59,179.55,700.84,171.38Zm6.32-14.23c0-5.27,3.3-14.89,8.7-14.89,3.56,0,10.41,2.5,10.41,6.85,0,5.27-3.43,14.89-8.7,14.89C714,164,707.16,161.5,707.16,157.15Z" transform="translate(-37.5 -104.26)"/><path class="cls-3" d="M796.78,197.08c1.72,0,4.49,2.11,4.49,3.69s-1.72,4.61-1.72,4.61c-7.25,13.18-15,25.18-24.51,25.18-5.93,0-16.08-4.09-17.92-7.78,0,0-7.52,7.78-14.63,7.78-6.07,0-18.32-8.31-18.32-15.42,0-17.27,15-46.53,29-46.53a25.86,25.86,0,0,1,17.4,7.25c4.74,0,12.65,1.58,12.65,4.88,0,4.61-9,26-9,36.51a2.4,2.4,0,0,0,2.11,2.24c4.61,0,11.07-8.17,17.53-20C793.89,199.45,795.07,197.08,796.78,197.08ZM758,181.66c-4.62,0-15.16,21.88-15.16,33.48a3,3,0,0,0,2.64,2.9c1.45,0,6.59-2.24,10.28-9.89,2.63-5.53,7-19.5,7-23.19C762.78,183.24,760.15,181.66,758,181.66Z" transform="translate(-37.5 -104.26)"/><path class="cls-3" d="M719.25,153.55l11.62-36a7.76,7.76,0,0,1,4.86,2.75L725,155.46Z" transform="translate(-37.5 -104.26)"/><path class="cls-3" d="M735.73,120.28a19.2,19.2,0,0,0,5.66,6.93.67.67,0,0,1-.32,1.2c-2.18.23-5.86.35-7.77-1.16" transform="translate(-37.5 -104.26)"/></g><path class="cls-3" d="M100.88,139.33c-13.7,0-26.75,37.57-26.75,55.89,0,7.51,5.67,12.91,9.75,12.91,4.48,0,9.49-6.46,15.69-14.23.92-1.06,1.58-1.85,2.89-1.85,2,0,9,5.27,9,7.12A7.45,7.45,0,0,1,110,202.6c-2.9,4.61-6.2,10.54-10.28,14.62-2.37,2.38-9.1,3-14.1,3-12.13,0-31.5-13.18-31.5-25.84,0-23.06,21.08-67.74,40.72-67.74,10.81,0,26.1,9.62,26.1,16.35,0,3.82-5.14,13.17-8.31,18.58-.66,1.18-1.45,2.11-2.5,2.11-2.24,0-10.81-4.75-10.81-7.25a11,11,0,0,1,1.19-3.56c1.84-4.61,3.69-7.91,3.69-11.47C104.18,140.92,103,139.33,100.88,139.33Z" transform="translate(-37.5 -104.26)"/><path class="cls-3" d="M153.74,173.87c0-1.19-1.19-2.64-2.11-2.64-2,0-7.78,3.82-9.49,9.36-3.43,11.2-9,32.55-9.49,36.63-.26,2.11-2.9,3-4.74,3-4.48,0-12.79-4.09-12.79-7.65,0-4.74,15.82-64.84,19.64-76.57a4.17,4.17,0,0,1,4.09-2.77c4.08,0,13.31,6.72,13.31,9a16.47,16.47,0,0,1-.66,3.3c-3.17,11.07-5.14,17.92-5.14,17.92s8.43-5.93,15.15-5.93c5.14,0,12.39,6.2,12.39,11.07,0,6.2-7.9,31.5-7.9,38.49a2.38,2.38,0,0,0,1.84,2c3.95,0,11.07-8,17.53-19.9,0,0,1.19-2.37,2.9-2.37s4.48,2.11,4.48,3.69-1.71,4.61-1.71,4.61c-7.25,13.18-14.9,25.18-24.52,25.18-7.77,0-19.63-5.8-19.63-11.47C146.89,200.36,153.74,178.87,153.74,173.87Z" transform="translate(-37.5 -104.26)"/><path class="cls-3" d="M235.72,189.15s1.19-2.37,2.9-2.37,4.48,2.11,4.48,3.69-1.71,4.61-1.71,4.61c-7.25,13.18-15,25.18-24.52,25.18-6.85,0-18.84-5.93-18.84-11.07,0-9.76,6.72-27.68,6.72-34.27,0-.92-3-1.58-3-1.58s-3.82,9-10.15,20.82c0,0-1.45,3.3-3.69,3.3-1.32,0-4.35-1.85-4.35-3.69,0-1.59,1.71-4.35,1.71-4.35,4.48-8.31,9.23-19.9,9.23-19.9s-6.46-4.35-6.46-8.83,5.14-14.77,10.15-14.77c3.82,0,11.86,5,11.86,8,0,2.77-1.71,5.14-1.71,8.44,0,2.11,16.73,4.48,16.73,10,0,4.35-7.38,27.29-7.38,34.8,0,1.45.66,1.71,1.06,1.71C223.46,208.92,229.26,201,235.72,189.15Z" transform="translate(-37.5 -104.26)"/><path class="cls-3" d="M279.74,211.29c-1.58,0-3.42,0-5.27-.13-4.35,5.8-9.75,9.1-15.29,9.1-9.22,0-25.7-8.7-25.7-18.19,0-18.32,12.52-43.76,28.47-43.76,11.6,0,25.57,9.62,25.57,17.8,0,7-2.24,16.07-6.46,24.77a9.33,9.33,0,0,0,3.43.4c7.9,0,14.1-12.13,14.1-12.13s1.19-2.37,2.77-2.37c1.84,0,4.74,2.11,4.74,3.69s-1.84,4.61-1.84,4.61S295.16,211.29,279.74,211.29Zm-23.19-2.24c.92,0,1.71-.52,2.76-1.58a3.13,3.13,0,0,1-1.45-2.77c0-2.63,5-9.22,9-9.75,3.29-7.51,5.4-15.29,5.4-21.61,0-.93-1.45-3-4.09-3-4.48,0-14.89,20.16-14.89,34.92A3.73,3.73,0,0,0,256.55,209.05Z" transform="translate(-37.5 -104.26)"/><path class="cls-3" d="M376,208.92c4,0,11.07-7.91,17.53-19.77,0,0,1.18-2.37,2.89-2.37s4.49,2.11,4.49,3.69-1.72,4.61-1.72,4.61c-7.38,13.18-15,25.18-24.51,25.18-5.93,0-19-5.54-19-11.47,0-6.46,7.38-29.52,7.38-34.53a3,3,0,0,0-2.77-2.5c-3.95,0-8.43,3.29-9.62,6.72-2.77,8-8.7,35.05-9.36,38.74-.39,1.85-2.24,3-4.87,3-3.17,0-12.39-4.09-12.39-7.65s8.57-36.11,8.57-39a2.47,2.47,0,0,0-2.38-1.84c-2.9,0-7.9,1.31-9.88,6.32-3.43,8.7-9.49,35.32-10.41,39.14-.53,1.72-2.24,3-4.88,3-3.16,0-12.26-4-12.26-7.52s10-42.7,12.79-51.66c.66-1.84,2.24-2.77,5.14-2.77,3.29,0,9,6.46,9,6.46s11.07-6.46,18.19-6.46c6.32,0,12.12,7.38,12.12,7.38s12.13-7.38,19.51-7.38c5.53,0,13.57,5.41,13.57,10.28,0,6.2-8.17,31.9-8.17,38.88C374.9,208.13,375.43,208.92,376,208.92Z" transform="translate(-37.5 -104.26)"/><path class="cls-3" d="M419.32,158.31c6.73,0,19.77,6.59,19.77,12.26,0,6.59-8.56,28.34-17.39,28.34a56.87,56.87,0,0,1-10.55-1.19,13.32,13.32,0,0,0-.79,5.14c0,2.77,5.67,5.67,8.7,5.67,7.12,0,17.53-2.51,26.1-19.38,0,0,1-2.37,2.76-2.37s4.48,2.11,4.48,3.69-1.58,4.61-1.58,4.61c-9,17-20.42,25.18-31.1,25.18-11.6,0-28.86-8.57-28.86-18.85C390.86,186.52,405.09,158.31,419.32,158.31Zm6.73,14c0-.66-1.19-1.58-2.24-1.58-4.09,0-11.08,13.05-12.26,18.58C420.51,188,426.05,177,426.05,172.28Z" transform="translate(-37.5 -104.26)"/><path class="cls-3" d="M499.59,189.15s1.19-2.37,2.9-2.37,4.48,2.11,4.48,3.69-1.71,4.61-1.71,4.61c-7.25,13.18-20,25.18-39.8,25.18-13.18,0-28.34-14.11-28.34-22.28,0-6.72,11.73-12.52,11.73-12.52S461,167,465.46,159.63a7.23,7.23,0,0,1,5.27-3c2.63,0,11.07,6.06,11.07,8.43,0,12.79,4.88,23.33,4.88,33.22A16.35,16.35,0,0,1,484,207C488,204.18,492.87,201,499.59,189.15Zm-42.7,8.31c0,6.59,3.56,11.2,5.14,11.2,2.37,0,5.4-2.37,5.4-7.12,0-9.49-1.71-14.23-1.71-22.53C465.72,179,456.89,190.87,456.89,197.46Z" transform="translate(-37.5 -104.26)"/><path class="cls-3" d="M526.22,158.58H536c.79,0,1.58.39,1.58,1.18,0,2.38-2.9,9.1-5,9.1h-9.09c-4.35,14.89-9,31.89-9,34.92a5.14,5.14,0,0,0,4.74,5.14c4.35,0,11.07-7.91,17.53-19.77,0,0,1.19-2.37,2.9-2.37s4.48,2.11,4.48,3.69-1.71,4.61-1.71,4.61c-7.25,13.18-15,25.18-24.65,25.18-9,0-22.53-6.86-22.53-13.45,0-3.55,4.35-20.82,8.83-37.95H499.6a1.44,1.44,0,0,1-1.45-1.32c0-1.58,3-9,5.4-9h3.3c2.5-9.23,4.34-15.82,5.27-18.72a3.49,3.49,0,0,1,3.42-2.9c4.62,0,14.11,6.46,14.11,8.83a15.92,15.92,0,0,1-.53,3.17Z" transform="translate(-37.5 -104.26)"/><path class="cls-3" d="M569.58,173.87c0-1.19-1.18-2.64-2.11-2.64-2,0-7.77,3.82-9.49,9.36-3.42,11.2-9,32.55-9.49,36.63-.26,2.11-2.89,3-4.74,3-4.48,0-12.78-4.09-12.78-7.65,0-4.74,15.81-64.84,19.63-76.57a4.17,4.17,0,0,1,4.09-2.77c4.09,0,13.31,6.72,13.31,9a16.47,16.47,0,0,1-.66,3.3c-3.16,11.07-5.14,17.92-5.14,17.92s8.44-5.93,15.16-5.93c5.14,0,12.39,6.2,12.39,11.07,0,6.2-7.91,31.5-7.91,38.49a2.38,2.38,0,0,0,1.84,2c4,0,11.08-8,17.53-19.9,0,0,1.19-2.37,2.9-2.37s4.48,2.11,4.48,3.69-1.71,4.61-1.71,4.61c-7.25,13.18-14.89,25.18-24.51,25.18-7.78,0-19.64-5.8-19.64-11.47C562.73,200.36,569.58,178.87,569.58,173.87Z" transform="translate(-37.5 -104.26)"/><path class="cls-3" d="M627.05,158.31c6.72,0,19.77,6.59,19.77,12.26,0,6.59-8.57,28.34-17.4,28.34a56.69,56.69,0,0,1-10.54-1.19,13.32,13.32,0,0,0-.79,5.14c0,2.77,5.66,5.67,8.69,5.67,7.12,0,17.53-2.51,26.1-19.38,0,0,1.06-2.37,2.77-2.37s4.48,2.11,4.48,3.69-1.58,4.61-1.58,4.61c-9,17-20.43,25.18-31.11,25.18-11.59,0-28.86-8.57-28.86-18.85C598.58,186.52,612.82,158.31,627.05,158.31Zm6.72,14c0-.66-1.18-1.58-2.24-1.58-4.09,0-11.07,13.05-12.26,18.58C628.24,188,633.77,177,633.77,172.28Z" transform="translate(-37.5 -104.26)"/><path class="cls-3" d="M707.32,189.15s1.18-2.37,2.9-2.37,4.48,2.11,4.48,3.69-1.72,4.61-1.72,4.61c-7.24,13.18-20,25.18-39.8,25.18-13.18,0-28.33-14.11-28.33-22.28,0-6.72,11.73-12.52,11.73-12.52s12.12-18.45,16.6-25.83a7.25,7.25,0,0,1,5.28-3c2.63,0,11.06,6.06,11.06,8.43,0,12.79,4.88,23.33,4.88,33.22a16.39,16.39,0,0,1-2.63,8.7C695.72,204.18,700.6,201,707.32,189.15Zm-42.7,8.31c0,6.59,3.55,11.2,5.14,11.2,2.37,0,5.4-2.37,5.4-7.12,0-9.49-1.71-14.23-1.71-22.53C673.45,179,664.62,190.87,664.62,197.46Z" transform="translate(-37.5 -104.26)"/><path class="cls-3" d="M714.57,161.08c.53-1.84,2.37-2.77,5.27-2.77,2.64,0,13.18,6.2,13.18,8.7,0,3-10.54,31.76-10.54,41,0,.53.92,1.19,1.32,1.19,3.82,0,10.67-8.18,17.39-20,0,0,1.06-2.37,2.77-2.37s4.48,2.11,4.48,3.69-1.84,4.61-1.84,4.61c-7.12,13.18-15,25.18-24.52,25.18-7.38,0-19.11-5.54-19.11-11.47C703,202.6,712.33,169.25,714.57,161.08Zm6.33-14.23c0-5.27,3.29-14.9,8.7-14.9,3.55,0,10.41,2.51,10.41,6.86,0,5.27-3.43,14.89-8.7,14.89C727.75,153.7,720.9,151.2,720.9,146.85Z" transform="translate(-37.5 -104.26)"/><path class="cls-3" d="M810.52,186.78c1.71,0,4.48,2.11,4.48,3.69s-1.71,4.61-1.71,4.61c-7.25,13.18-15,25.18-24.52,25.18-5.93,0-16.08-4.09-17.92-7.78,0,0-7.51,7.78-14.63,7.78-6.06,0-18.32-8.31-18.32-15.42,0-17.27,15-46.53,29-46.53a25.83,25.83,0,0,1,17.4,7.25c4.75,0,12.65,1.58,12.65,4.88,0,4.61-9,26-9,36.51a2.4,2.4,0,0,0,2.11,2.24c4.61,0,11.07-8.18,17.53-20C807.62,189.15,808.81,186.78,810.52,186.78Zm-38.75-15.42c-4.61,0-15.15,21.88-15.15,33.48a3,3,0,0,0,2.63,2.9c1.45,0,6.59-2.24,10.28-9.89,2.64-5.53,7-19.5,7-23.19C776.52,172.94,773.88,171.36,771.77,171.36Z" transform="translate(-37.5 -104.26)"/><path class="cls-3" d="M733,143.25l11.62-36a7.77,7.77,0,0,1,4.87,2.75l-10.76,35.18Z" transform="translate(-37.5 -104.26)"/><path class="cls-3" d="M749.47,110a19.11,19.11,0,0,0,5.65,6.93.66.66,0,0,1-.31,1.19c-2.19.24-5.87.36-7.77-1.15" transform="translate(-37.5 -104.26)"/><path class="cls-4" d="M100.88,139.33c-13.7,0-26.75,37.57-26.75,55.89,0,7.51,5.67,12.91,9.75,12.91,4.48,0,9.49-6.46,15.69-14.23.92-1.06,1.58-1.85,2.89-1.85,2,0,9,5.27,9,7.12A7.45,7.45,0,0,1,110,202.6c-2.9,4.61-6.2,10.54-10.28,14.62-2.37,2.38-9.1,3-14.1,3-12.13,0-31.5-13.18-31.5-25.84,0-23.06,21.08-67.74,40.72-67.74,10.81,0,26.1,9.62,26.1,16.35,0,3.82-5.14,13.17-8.31,18.58-.66,1.18-1.45,2.11-2.5,2.11-2.24,0-10.81-4.75-10.81-7.25a11,11,0,0,1,1.19-3.56c1.84-4.61,3.69-7.91,3.69-11.47C104.18,140.92,103,139.33,100.88,139.33Z" transform="translate(-37.5 -104.26)"/><path class="cls-4" d="M153.74,173.87c0-1.19-1.19-2.64-2.11-2.64-2,0-7.78,3.82-9.49,9.36-3.43,11.2-9,32.55-9.49,36.63-.26,2.11-2.9,3-4.74,3-4.48,0-12.79-4.09-12.79-7.65,0-4.74,15.82-64.84,19.64-76.57a4.17,4.17,0,0,1,4.09-2.77c4.08,0,13.31,6.72,13.31,9a16.47,16.47,0,0,1-.66,3.3c-3.17,11.07-5.14,17.92-5.14,17.92s8.43-5.93,15.15-5.93c5.14,0,12.39,6.2,12.39,11.07,0,6.2-7.9,31.5-7.9,38.49a2.38,2.38,0,0,0,1.84,2c3.95,0,11.07-8,17.53-19.9,0,0,1.19-2.37,2.9-2.37s4.48,2.11,4.48,3.69-1.71,4.61-1.71,4.61c-7.25,13.18-14.9,25.18-24.52,25.18-7.77,0-19.63-5.8-19.63-11.47C146.89,200.36,153.74,178.87,153.74,173.87Z" transform="translate(-37.5 -104.26)"/><path class="cls-4" d="M235.72,189.15s1.19-2.37,2.9-2.37,4.48,2.11,4.48,3.69-1.71,4.61-1.71,4.61c-7.25,13.18-15,25.18-24.52,25.18-6.85,0-18.84-5.93-18.84-11.07,0-9.76,6.72-27.68,6.72-34.27,0-.92-3-1.58-3-1.58s-3.82,9-10.15,20.82c0,0-1.45,3.3-3.69,3.3-1.32,0-4.35-1.85-4.35-3.69,0-1.59,1.71-4.35,1.71-4.35,4.48-8.31,9.23-19.9,9.23-19.9s-6.46-4.35-6.46-8.83,5.14-14.77,10.15-14.77c3.82,0,11.86,5,11.86,8,0,2.77-1.71,5.14-1.71,8.44,0,2.11,16.73,4.48,16.73,10,0,4.35-7.38,27.29-7.38,34.8,0,1.45.66,1.71,1.06,1.71C223.46,208.92,229.26,201,235.72,189.15Z" transform="translate(-37.5 -104.26)"/><path class="cls-4" d="M279.74,211.29c-1.58,0-3.42,0-5.27-.13-4.35,5.8-9.75,9.1-15.29,9.1-9.22,0-25.7-8.7-25.7-18.19,0-18.32,12.52-43.76,28.47-43.76,11.6,0,25.57,9.62,25.57,17.8,0,7-2.24,16.07-6.46,24.77a9.33,9.33,0,0,0,3.43.4c7.9,0,14.1-12.13,14.1-12.13s1.19-2.37,2.77-2.37c1.84,0,4.74,2.11,4.74,3.69s-1.84,4.61-1.84,4.61S295.16,211.29,279.74,211.29Zm-23.19-2.24c.92,0,1.71-.52,2.76-1.58a3.13,3.13,0,0,1-1.45-2.77c0-2.63,5-9.22,9-9.75,3.29-7.51,5.4-15.29,5.4-21.61,0-.93-1.45-3-4.09-3-4.48,0-14.89,20.16-14.89,34.92A3.73,3.73,0,0,0,256.55,209.05Z" transform="translate(-37.5 -104.26)"/><path class="cls-4" d="M376,208.92c4,0,11.07-7.91,17.53-19.77,0,0,1.18-2.37,2.89-2.37s4.49,2.11,4.49,3.69-1.72,4.61-1.72,4.61c-7.38,13.18-15,25.18-24.51,25.18-5.93,0-19-5.54-19-11.47,0-6.46,7.38-29.52,7.38-34.53a3,3,0,0,0-2.77-2.5c-3.95,0-8.43,3.29-9.62,6.72-2.77,8-8.7,35.05-9.36,38.74-.39,1.85-2.24,3-4.87,3-3.17,0-12.39-4.09-12.39-7.65s8.57-36.11,8.57-39a2.47,2.47,0,0,0-2.38-1.84c-2.9,0-7.9,1.31-9.88,6.32-3.43,8.7-9.49,35.32-10.41,39.14-.53,1.72-2.24,3-4.88,3-3.16,0-12.26-4-12.26-7.52s10-42.7,12.79-51.66c.66-1.84,2.24-2.77,5.14-2.77,3.29,0,9,6.46,9,6.46s11.07-6.46,18.19-6.46c6.32,0,12.12,7.38,12.12,7.38s12.13-7.38,19.51-7.38c5.53,0,13.57,5.41,13.57,10.28,0,6.2-8.17,31.9-8.17,38.88C374.9,208.13,375.43,208.92,376,208.92Z" transform="translate(-37.5 -104.26)"/><path class="cls-4" d="M419.32,158.31c6.73,0,19.77,6.59,19.77,12.26,0,6.59-8.56,28.34-17.39,28.34a56.87,56.87,0,0,1-10.55-1.19,13.32,13.32,0,0,0-.79,5.14c0,2.77,5.67,5.67,8.7,5.67,7.12,0,17.53-2.51,26.1-19.38,0,0,1-2.37,2.76-2.37s4.48,2.11,4.48,3.69-1.58,4.61-1.58,4.61c-9,17-20.42,25.18-31.1,25.18-11.6,0-28.86-8.57-28.86-18.85C390.86,186.52,405.09,158.31,419.32,158.31Zm6.73,14c0-.66-1.19-1.58-2.24-1.58-4.09,0-11.08,13.05-12.26,18.58C420.51,188,426.05,177,426.05,172.28Z" transform="translate(-37.5 -104.26)"/><path class="cls-4" d="M499.59,189.15s1.19-2.37,2.9-2.37,4.48,2.11,4.48,3.69-1.71,4.61-1.71,4.61c-7.25,13.18-20,25.18-39.8,25.18-13.18,0-28.34-14.11-28.34-22.28,0-6.72,11.73-12.52,11.73-12.52S461,167,465.46,159.63a7.23,7.23,0,0,1,5.27-3c2.63,0,11.07,6.06,11.07,8.43,0,12.79,4.88,23.33,4.88,33.22A16.35,16.35,0,0,1,484,207C488,204.18,492.87,201,499.59,189.15Zm-42.7,8.31c0,6.59,3.56,11.2,5.14,11.2,2.37,0,5.4-2.37,5.4-7.12,0-9.49-1.71-14.23-1.71-22.53C465.72,179,456.89,190.87,456.89,197.46Z" transform="translate(-37.5 -104.26)"/><path class="cls-4" d="M526.22,158.58H536c.79,0,1.58.39,1.58,1.18,0,2.38-2.9,9.1-5,9.1h-9.09c-4.35,14.89-9,31.89-9,34.92a5.14,5.14,0,0,0,4.74,5.14c4.35,0,11.07-7.91,17.53-19.77,0,0,1.19-2.37,2.9-2.37s4.48,2.11,4.48,3.69-1.71,4.61-1.71,4.61c-7.25,13.18-15,25.18-24.65,25.18-9,0-22.53-6.86-22.53-13.45,0-3.55,4.35-20.82,8.83-37.95H499.6a1.44,1.44,0,0,1-1.45-1.32c0-1.58,3-9,5.4-9h3.3c2.5-9.23,4.34-15.82,5.27-18.72a3.49,3.49,0,0,1,3.42-2.9c4.62,0,14.11,6.46,14.11,8.83a15.92,15.92,0,0,1-.53,3.17Z" transform="translate(-37.5 -104.26)"/><path class="cls-4" d="M569.58,173.87c0-1.19-1.18-2.64-2.11-2.64-2,0-7.77,3.82-9.49,9.36-3.42,11.2-9,32.55-9.49,36.63-.26,2.11-2.89,3-4.74,3-4.48,0-12.78-4.09-12.78-7.65,0-4.74,15.81-64.84,19.63-76.57a4.17,4.17,0,0,1,4.09-2.77c4.09,0,13.31,6.72,13.31,9a16.47,16.47,0,0,1-.66,3.3c-3.16,11.07-5.14,17.92-5.14,17.92s8.44-5.93,15.16-5.93c5.14,0,12.39,6.2,12.39,11.07,0,6.2-7.91,31.5-7.91,38.49a2.38,2.38,0,0,0,1.84,2c4,0,11.08-8,17.53-19.9,0,0,1.19-2.37,2.9-2.37s4.48,2.11,4.48,3.69-1.71,4.61-1.71,4.61c-7.25,13.18-14.89,25.18-24.51,25.18-7.78,0-19.64-5.8-19.64-11.47C562.73,200.36,569.58,178.87,569.58,173.87Z" transform="translate(-37.5 -104.26)"/><path class="cls-4" d="M627.05,158.31c6.72,0,19.77,6.59,19.77,12.26,0,6.59-8.57,28.34-17.4,28.34a56.69,56.69,0,0,1-10.54-1.19,13.32,13.32,0,0,0-.79,5.14c0,2.77,5.66,5.67,8.69,5.67,7.12,0,17.53-2.51,26.1-19.38,0,0,1.06-2.37,2.77-2.37s4.48,2.11,4.48,3.69-1.58,4.61-1.58,4.61c-9,17-20.43,25.18-31.11,25.18-11.59,0-28.86-8.57-28.86-18.85C598.58,186.52,612.82,158.31,627.05,158.31Zm6.72,14c0-.66-1.18-1.58-2.24-1.58-4.09,0-11.07,13.05-12.26,18.58C628.24,188,633.77,177,633.77,172.28Z" transform="translate(-37.5 -104.26)"/><path class="cls-4" d="M707.32,189.15s1.18-2.37,2.9-2.37,4.48,2.11,4.48,3.69-1.72,4.61-1.72,4.61c-7.24,13.18-20,25.18-39.8,25.18-13.18,0-28.33-14.11-28.33-22.28,0-6.72,11.73-12.52,11.73-12.52s12.12-18.45,16.6-25.83a7.25,7.25,0,0,1,5.28-3c2.63,0,11.06,6.06,11.06,8.43,0,12.79,4.88,23.33,4.88,33.22a16.39,16.39,0,0,1-2.63,8.7C695.72,204.18,700.6,201,707.32,189.15Zm-42.7,8.31c0,6.59,3.55,11.2,5.14,11.2,2.37,0,5.4-2.37,5.4-7.12,0-9.49-1.71-14.23-1.71-22.53C673.45,179,664.62,190.87,664.62,197.46Z" transform="translate(-37.5 -104.26)"/><path class="cls-4" d="M714.57,161.08c.53-1.84,2.37-2.77,5.27-2.77,2.64,0,13.18,6.2,13.18,8.7,0,3-10.54,31.76-10.54,41,0,.53.92,1.19,1.32,1.19,3.82,0,10.67-8.18,17.39-20,0,0,1.06-2.37,2.77-2.37s4.48,2.11,4.48,3.69-1.84,4.61-1.84,4.61c-7.12,13.18-15,25.18-24.52,25.18-7.38,0-19.11-5.54-19.11-11.47C703,202.6,712.33,169.25,714.57,161.08Zm6.33-14.23c0-5.27,3.29-14.9,8.7-14.9,3.55,0,10.41,2.51,10.41,6.86,0,5.27-3.43,14.89-8.7,14.89C727.75,153.7,720.9,151.2,720.9,146.85Z" transform="translate(-37.5 -104.26)"/><path class="cls-4" d="M810.52,186.78c1.71,0,4.48,2.11,4.48,3.69s-1.71,4.61-1.71,4.61c-7.25,13.18-15,25.18-24.52,25.18-5.93,0-16.08-4.09-17.92-7.78,0,0-7.51,7.78-14.63,7.78-6.06,0-18.32-8.31-18.32-15.42,0-17.27,15-46.53,29-46.53a25.83,25.83,0,0,1,17.4,7.25c4.75,0,12.65,1.58,12.65,4.88,0,4.61-9,26-9,36.51a2.4,2.4,0,0,0,2.11,2.24c4.61,0,11.07-8.18,17.53-20C807.62,189.15,808.81,186.78,810.52,186.78Zm-38.75-15.42c-4.61,0-15.15,21.88-15.15,33.48a3,3,0,0,0,2.63,2.9c1.45,0,6.59-2.24,10.28-9.89,2.64-5.53,7-19.5,7-23.19C776.52,172.94,773.88,171.36,771.77,171.36Z" transform="translate(-37.5 -104.26)"/><path class="cls-4" d="M733,143.25l11.62-36a7.77,7.77,0,0,1,4.87,2.75l-10.76,35.18Z" transform="translate(-37.5 -104.26)"/><path class="cls-4" d="M749.47,110a19.11,19.11,0,0,0,5.65,6.93.66.66,0,0,1-.31,1.19c-2.19.24-5.87.36-7.77-1.15" transform="translate(-37.5 -104.26)"/></g></g></svg>